<svg width="14" height="13" viewBox="0 0 14 13" fill="none" xmlns="http://www.w3.org/2000/svg">
<path d="M13.0989 1.4L12.2056 1.02667V7.04667L13.8256 3.14C14.0989 2.46 13.7856 1.68 13.0989 1.4ZM0.0989003 3.86667L3.40557 11.8333C3.50294 12.0757 3.66903 12.2844 3.88341 12.4336C4.09779 12.5828 4.35112 12.6662 4.61223 12.6733C4.78557 12.6733 4.96557 12.64 5.1389 12.5667L10.0522 10.5333C10.5522 10.3267 10.8589 9.83333 10.8722 9.34C10.8789 9.16667 10.8456 8.97333 10.7856 8.8L7.45223 0.833333C7.35832 0.589136 7.1929 0.37896 6.97762 0.230283C6.76233 0.0816054 6.5072 0.00134673 6.24557 0C6.07223 0 5.8989 0.0400001 5.73223 0.1L0.825567 2.13333C0.499409 2.2669 0.239641 2.52452 0.103375 2.84956C-0.0328906 3.17459 -0.0345003 3.54044 0.0989003 3.86667ZM10.8656 1.33333C10.8656 0.979711 10.7251 0.640573 10.475 0.390524C10.225 0.140476 9.88586 0 9.53223 0H8.56557L10.8656 5.56" fill="#6B6B6B"/>
</svg>
