<svg width="18" height="18" viewBox="0 0 18 18" fill="none" xmlns="http://www.w3.org/2000/svg">
<path d="M7.61438 2.18726e-08C7.052 2.18726e-08 6.40644 0.137872 5.65396 0.460089C8.71143 0.793149 8.2639 3.99983 6.21238 4.573C3.62224 5.29722 1.01191 3.65515 2.31767 0.731185C0.746557 1.46508 0.647546 3.86041 1.80558 5.04936C4.56087 7.86875 1.21825 9.84776 0.440018 6.81535C-1.11165 11.6757 1.35449 18 9.21045 18C19.1393 18 20.3789 3.48862 14.3274 1.92633C15.3769 3.59318 13.8085 4.6737 13.3412 4.7589C11.3095 5.1423 11.0402 -0.000387258 7.61438 2.18726e-08ZM9.09955 4.573C9.27777 4.573 9.47184 4.6156 9.60649 4.68531L14.1967 7.28396C14.4897 7.44275 14.4897 7.7061 14.1967 7.87263L9.60649 10.4635C9.32134 10.6301 8.87381 10.6301 8.58866 10.4635L3.98661 7.87263C3.69749 7.7061 3.69749 7.44275 3.98661 7.28396L8.58866 4.68531C8.72331 4.6156 8.90153 4.573 9.09955 4.573ZM5.57475 6.99737C4.71929 6.98188 4.26384 7.57829 4.85395 7.93847C5.23415 8.12436 5.79257 8.10887 6.14901 7.90748C6.49753 7.70222 6.52526 7.37691 6.20842 7.15616C6.03812 7.05934 5.81238 7.00125 5.57475 6.99737ZM12.6481 7.00125C11.8243 7.01674 11.4085 7.60153 12.0026 7.95008C12.3828 8.13985 12.9491 8.12823 13.3095 7.92297C13.662 7.71772 13.6858 7.38465 13.357 7.16391C13.1907 7.07096 12.965 7.00899 12.7273 7.00125H12.6481ZM9.12332 7.00125C8.86193 6.99737 8.60846 7.05934 8.42232 7.16391C8.01835 7.38078 8.01043 7.7487 8.39855 7.97332C8.79064 8.19794 9.42035 8.1902 9.78867 7.95008C10.3827 7.60153 9.97085 7.00899 9.12332 7.00125ZM3.53907 8.5891C3.59848 8.59297 3.67373 8.60846 3.76086 8.65106L8.17677 11.149C8.46192 11.3078 8.68767 11.699 8.68767 12.0204V16.6561C8.68767 16.9776 8.46192 17.1093 8.17677 16.9505L3.76482 14.4564C3.47175 14.2899 3.24204 13.9064 3.24204 13.5811V8.94539C3.24204 8.70528 3.36085 8.5891 3.53907 8.5891ZM14.6798 8.5891C14.8462 8.5891 14.965 8.70528 14.965 8.94539V13.5811C14.965 13.9064 14.7274 14.2899 14.4501 14.4564L10.0342 16.9505C9.74907 17.1093 9.52332 16.9776 9.52332 16.6561V12.0204C9.52332 11.699 9.74907 11.3078 10.0342 11.149L14.4501 8.65106C14.5333 8.60846 14.6165 8.59297 14.6798 8.5891ZM7.35299 11.1258H7.30943C7.09952 11.1413 6.97279 11.3117 6.97279 11.575C6.94903 11.9778 7.25794 12.5084 7.64211 12.7291C8.03023 12.946 8.33915 12.7717 8.32331 12.3457C8.33123 11.7958 7.79656 11.1413 7.35299 11.1258ZM12.5372 11.97C12.0937 11.9739 11.555 12.6362 11.559 13.1861C11.563 13.5889 11.864 13.7438 12.2402 13.5308C12.6125 13.3178 12.9135 12.8221 12.9174 12.4154C12.9174 12.1559 12.7867 11.9855 12.5808 11.97H12.5372ZM3.947 12.8414C3.73314 12.853 3.60244 13.0235 3.60244 13.2907C3.58264 13.6973 3.89156 14.224 4.27572 14.4448C4.66384 14.6578 4.97276 14.4835 4.95692 14.0536C4.95692 13.4921 4.39849 12.8221 3.947 12.8414Z" fill="white"/>
</svg>
