<svg xmlns="http://www.w3.org/2000/svg" width="256" height="256" viewBox="0 0 256 256"><rect width="100%" height="100%" fill="#DDDDDD"/><path fill="#999999" d="M96.295 128.42q0 5.33-1.78 9.78-1.77 4.46-4.99 7.67-3.21 3.22-7.74 4.99-4.52 1.78-10.05 1.78h-18.46V104.2h18.46q5.53 0 10.05 1.79 4.53 1.79 7.74 4.99 3.22 3.2 4.99 7.66 1.78 4.45 1.78 9.78Zm-9.25 0q0-3.99-1.05-7.15-1.06-3.17-3.05-5.36-1.99-2.2-4.82-3.37-2.84-1.17-6.39-1.17h-9.41v34.1h9.41q3.55 0 6.39-1.17 2.83-1.17 4.82-3.37 1.99-2.19 3.05-5.36 1.05-3.16 1.05-7.15Zm22.41 3.08h15.62q0-1.61-.46-3.03-.45-1.42-1.35-2.5-.91-1.07-2.3-1.69-1.39-.62-3.23-.62-3.59 0-5.65 2.05-2.06 2.04-2.63 5.79Zm21.11 4.99h-21.27q.2 2.65.93 4.58.74 1.92 1.95 3.18 1.2 1.25 2.86 1.87 1.66.62 3.67.62t3.47-.47q1.45-.46 2.54-1.03 1.09-.57 1.91-1.04.82-.47 1.59-.47 1.04 0 1.55.77l2.37 3.01q-1.37 1.61-3.08 2.7t-3.57 1.74q-1.86.66-3.78.92-1.93.27-3.74.27-3.58 0-6.66-1.19-3.09-1.19-5.36-3.51-2.28-2.33-3.59-5.77-1.3-3.43-1.3-7.95 0-3.52 1.13-6.62 1.14-3.1 3.27-5.39 2.13-2.3 5.19-3.64 3.07-1.34 6.92-1.34 3.25 0 6 1.04 2.74 1.04 4.72 3.03 1.98 2 3.1 4.89 1.12 2.9 1.12 6.62 0 1.88-.4 2.53-.4.65-1.54.65Zm34.94-13.97-2.18 3.02q-.37.47-.72.74-.35.26-1.02.26-.64 0-1.24-.38-.6-.39-1.44-.87-.84-.49-1.99-.87-1.16-.39-2.87-.39-2.17 0-3.82.79-1.64.79-2.73 2.26-1.09 1.47-1.62 3.57-.54 2.09-.54 4.74 0 2.74.59 4.89.59 2.14 1.69 3.6 1.11 1.46 2.68 2.21 1.58.75 3.55.75 1.98 0 3.2-.48 1.22-.49 2.06-1.07.84-.59 1.46-1.08.62-.48 1.39-.48 1 0 1.51.77l2.37 3.01q-1.37 1.61-2.98 2.7-1.6 1.09-3.33 1.74-1.73.66-3.55.92-1.83.27-3.64.27-3.18 0-5.99-1.19-2.82-1.19-4.93-3.46-2.11-2.28-3.33-5.58-1.22-3.3-1.22-7.52 0-3.79 1.09-7.02 1.08-3.23 3.2-5.6 2.11-2.36 5.22-3.7 3.12-1.34 7.17-1.34 3.85 0 6.75 1.24t5.21 3.55Zm5.49-19.66h8.28v28.51h1.54q.84 0 1.32-.22.49-.22.99-.89l8.54-10.55q.54-.7 1.19-1.07.66-.37 1.69-.37h7.58l-10.69 12.76q-1.14 1.51-2.48 2.31.7.51 1.26 1.18.55.67 1.05 1.44l11.46 16.68h-7.47q-.97 0-1.68-.32-.7-.32-1.17-1.15l-8.78-13.04q-.47-.77-.97-1-.5-.24-1.51-.24h-1.87v15.75h-8.28v-49.78Z"/></svg>