<svg xmlns="http://www.w3.org/2000/svg" width="1080" height="1350" viewBox="0 0 1080 1350"><rect width="100%" height="100%" fill="#DDDDDD"/><path fill="#999999" d="M256.625 705.67h14.82v10.54h-45.6v-10.54h16.7v-48.06q0-2.85.17-5.87l-11.85 9.92q-1.03.8-2.02 1-1 .2-1.89.03-.88-.17-1.56-.6-.69-.43-1.03-.94l-4.45-6.1 25.14-21.38h11.57v72Zm85.22-30.67q0 10.77-2.31 18.72-2.31 7.95-6.38 13.14-4.08 5.19-9.64 7.73-5.56 2.53-12 2.53t-11.94-2.53q-5.5-2.54-9.55-7.73-4.04-5.19-6.32-13.14-2.28-7.95-2.28-18.72 0-10.83 2.28-18.75 2.28-7.93 6.32-13.11 4.05-5.19 9.55-7.73 5.5-2.53 11.94-2.53 6.44 0 12 2.53 5.56 2.54 9.64 7.73 4.07 5.18 6.38 13.11 2.31 7.92 2.31 18.75Zm-14.54 0q0-8.95-1.31-14.82-1.31-5.87-3.5-9.35-2.2-3.48-5.05-4.87-2.85-1.4-5.93-1.4-3.02 0-5.84 1.4-2.82 1.39-4.99 4.87-2.16 3.48-3.44 9.35-1.29 5.87-1.29 14.82t1.29 14.82q1.28 5.87 3.44 9.35 2.17 3.47 4.99 4.87 2.82 1.4 5.84 1.4 3.08 0 5.93-1.4 2.85-1.4 5.05-4.87 2.19-3.48 3.5-9.35 1.31-5.87 1.31-14.82Zm50.45 31.12q3.47 0 6.1-1 2.62-.99 4.41-2.76 1.8-1.77 2.71-4.22.91-2.45.91-5.3 0-6.78-3.76-10.26-3.76-3.48-10.37-3.48-6.61 0-10.38 3.48-3.76 3.48-3.76 10.26 0 2.85.91 5.3.92 2.45 2.71 4.22 1.8 1.77 4.42 2.76 2.62 1 6.1 1Zm0-62.64q-3.14 0-5.42.97t-3.79 2.59q-1.51 1.62-2.22 3.73-.71 2.11-.71 4.45 0 2.45.6 4.76.59 2.31 2.02 4.1 1.42 1.8 3.76 2.88 2.34 1.09 5.76 1.09t5.75-1.09q2.34-1.08 3.77-2.88 1.42-1.79 2.02-4.1.6-2.31.6-4.76 0-2.34-.74-4.45-.74-2.11-2.23-3.73-1.48-1.62-3.76-2.59-2.28-.97-5.41-.97Zm13.91 29.75q7.52 2.45 11.11 7.5 3.59 5.04 3.59 12.34 0 5.47-2.08 9.92-2.08 4.44-5.84 7.58-3.76 3.13-9.04 4.84-5.27 1.71-11.65 1.71-6.39 0-11.66-1.71-5.27-1.71-9.03-4.84-3.77-3.14-5.85-7.58-2.08-4.45-2.08-9.92 0-7.3 3.59-12.34 3.6-5.05 11.12-7.5-5.99-2.51-8.98-7.12-2.99-4.62-2.99-11.12 0-4.67 1.91-8.72 1.91-4.05 5.33-7.04t8.18-4.67q4.76-1.68 10.46-1.68 5.7 0 10.46 1.68 4.76 1.68 8.18 4.67t5.33 7.04q1.91 4.05 1.91 8.72 0 6.5-3 11.12-2.99 4.61-8.97 7.12Zm82.42 1.77q0 10.77-2.31 18.72-2.31 7.95-6.38 13.14-4.08 5.19-9.64 7.73-5.56 2.53-12 2.53t-11.94-2.53q-5.5-2.54-9.55-7.73-4.04-5.19-6.32-13.14-2.28-7.95-2.28-18.72 0-10.83 2.28-18.75 2.28-7.93 6.32-13.11 4.05-5.19 9.55-7.73 5.5-2.53 11.94-2.53 6.44 0 12 2.53 5.56 2.54 9.64 7.73 4.07 5.18 6.38 13.11 2.31 7.92 2.31 18.75Zm-14.54 0q0-8.95-1.31-14.82-1.31-5.87-3.5-9.35-2.2-3.48-5.05-4.87-2.85-1.4-5.93-1.4-3.02 0-5.84 1.4-2.82 1.39-4.99 4.87-2.16 3.48-3.44 9.35-1.29 5.87-1.29 14.82t1.29 14.82q1.28 5.87 3.44 9.35 2.17 3.47 4.99 4.87 2.82 1.4 5.84 1.4 3.08 0 5.93-1.4 2.85-1.4 5.05-4.87 2.19-3.48 3.5-9.35 1.31-5.87 1.31-14.82Zm105.05 22.34-7.46 7.36-19.33-19.33-19.49 19.44-7.47-7.35 19.5-19.55-18.59-18.59 7.41-7.41 18.59 18.59 18.46-18.47 7.53 7.41-18.53 18.52 19.38 19.38Zm78.04 8.33h14.82v10.54h-45.6v-10.54h16.7v-48.06q0-2.85.17-5.87l-11.86 9.92q-1.02.8-2.02 1-1 .2-1.88.03-.88-.17-1.57-.6-.68-.43-1.03-.94l-4.44-6.1 25.14-21.38h11.57v72Zm35.51-47.6-7.41-1.31q.85-5.93 3.3-10.4 2.46-4.48 6.13-7.47 3.68-2.99 8.44-4.5 4.76-1.51 10.23-1.51 5.7 0 10.29 1.62 4.59 1.62 7.84 4.5 3.24 2.88 4.98 6.76 1.74 3.87 1.74 8.38 0 3.93-.88 6.92-.89 2.99-2.54 5.22-1.65 2.22-4.1 3.76-2.45 1.54-5.53 2.56 7.41 2.34 11.06 7.13 3.64 4.79 3.64 12.03 0 6.15-2.28 10.88t-6.15 7.96q-3.88 3.22-8.98 4.87-5.1 1.65-10.8 1.65-6.21 0-10.83-1.42-4.62-1.43-8.04-4.22-3.42-2.79-5.81-6.84-2.4-4.05-4.11-9.35l6.22-2.56q2.45-1.03 4.59-.55 2.13.49 3.1 2.31 1.03 2 2.25 3.94 1.23 1.93 2.94 3.44t4.02 2.46q2.31.94 5.5.94 3.59 0 6.27-1.17 2.68-1.17 4.47-3.05 1.8-1.88 2.68-4.19.88-2.31.88-4.65 0-2.96-.62-5.38-.63-2.43-2.62-4.14-2-1.71-5.73-2.68-3.74-.96-10.01-.96v-10.04q5.19-.05 8.61-.96 3.42-.92 5.44-2.54 2.03-1.63 2.83-3.91.79-2.28.79-5.01 0-5.82-3.25-8.84-3.24-3.02-8.66-3.02-2.51 0-4.62.71-2.1.72-3.79 2-1.68 1.28-2.82 2.99-1.14 1.71-1.71 3.76-.97 2.63-2.53 3.48-1.57.86-4.42.4Zm78.6-11.51-2.91 17.15q2.74-.57 5.25-.82 2.51-.26 4.84-.26 6.5 0 11.46 1.94 4.96 1.94 8.32 5.36 3.37 3.42 5.08 8 1.71 4.59 1.71 9.89 0 6.56-2.31 11.97-2.31 5.42-6.42 9.27-4.1 3.84-9.71 5.95-5.62 2.11-12.23 2.11-3.88 0-7.35-.8-3.48-.79-6.53-2.13-3.05-1.34-5.64-3.08-2.6-1.74-4.65-3.68l4.33-5.98q1.37-1.94 3.59-1.94 1.43 0 2.91.91 1.48.91 3.39 2 1.91 1.08 4.51 1.99 2.59.91 6.24.91 3.87 0 6.84-1.25 2.96-1.26 4.93-3.51 1.96-2.25 2.96-5.35 1-3.11 1-6.76 0-6.72-3.91-10.52-3.9-3.79-11.54-3.79-5.87 0-12.02 2.17l-8.78-2.51 6.84-40.01h40.7v5.98q0 3.02-1.89 4.91-1.88 1.88-6.38 1.88h-22.63ZM860.085 675q0 10.77-2.31 18.72-2.3 7.95-6.38 13.14t-9.63 7.73q-5.56 2.53-12 2.53t-11.94-2.53q-5.5-2.54-9.55-7.73-4.05-5.19-6.33-13.14-2.28-7.95-2.28-18.72 0-10.83 2.28-18.75 2.28-7.93 6.33-13.11 4.05-5.19 9.55-7.73 5.5-2.53 11.94-2.53 6.44 0 12 2.53 5.55 2.54 9.63 7.73 4.08 5.18 6.38 13.11 2.31 7.92 2.31 18.75Zm-14.53 0q0-8.95-1.31-14.82-1.31-5.87-3.51-9.35-2.19-3.48-5.04-4.87-2.85-1.4-5.93-1.4-3.02 0-5.84 1.4-2.83 1.39-4.99 4.87-2.17 3.48-3.45 9.35-1.28 5.87-1.28 14.82t1.28 14.82q1.28 5.87 3.45 9.35 2.16 3.47 4.99 4.87 2.82 1.4 5.84 1.4 3.08 0 5.93-1.4 2.85-1.4 5.04-4.87 2.2-3.48 3.51-9.35 1.31-5.87 1.31-14.82Z"/></svg>